<?xml version="1.0" encoding="utf-8"?>
<!-- Generator: Adobe Illustrator 16.0.0, SVG Export Plug-In . SVG Version: 6.00 Build 0)  -->
<!DOCTYPE svg PUBLIC "-//W3C//DTD SVG 1.1//EN" "http://www.w3.org/Graphics/SVG/1.1/DTD/svg11.dtd">
<svg version="1.1" id="レイヤー_1" xmlns="http://www.w3.org/2000/svg" xmlns:xlink="http://www.w3.org/1999/xlink" x="0px"
	 y="0px" width="185.667px" height="36px" viewBox="-34.333 0 185.667 36" enable-background="new -34.333 0 185.667 36"
	 xml:space="preserve">
<g>
	<path fill="#2B3137" d="M83.175,84.402V72.12c0-0.606,0.058-3.244,0.058-5.187h-0.058l-5.852,17.469h-2.781l-5.853-17.438h-0.058
		c0,1.912,0.058,4.55,0.058,5.156v12.282h-2.723V63.604h4.027l5.938,17.584h0.059l5.91-17.584h3.998v20.799H83.175z"/>
	<path fill="#2B3137" d="M99.338,69.252h2.811c-1.768,4.954-3.506,9.908-5.446,14.862c-2.405,6.142-2.666,6.489-5.938,6.489
		c-0.377,0-0.666-0.117-1.072-0.232v-2.316c0.318,0.115,0.84,0.26,1.535,0.26c1.334,0,1.478-0.375,2.694-3.504L88.3,69.252h2.897
		l4.025,12.342h0.059L99.338,69.252z"/>
	<path fill="#2B3137" d="M119.355,84.402H116.4l-5.418-20.799h3.043l3.882,16.918h0.058l4.664-16.918h3.071l4.665,16.918h0.058
		l3.882-16.918h3.102l-5.477,20.799h-2.955l-4.75-17.235h-0.059L119.355,84.402z"/>
	<path fill="#2B3137" d="M145.92,68.818c4.836,0,7.037,4.084,7.037,7.996c0,3.91-2.201,7.994-7.037,7.994
		c-4.838,0-7.041-4.084-7.041-7.994C138.879,72.902,141.082,68.818,145.92,68.818z M145.92,82.607c3.648,0,4.402-3.767,4.402-5.793
		c0-2.028-0.754-5.795-4.402-5.795c-3.65,0-4.404,3.767-4.404,5.795C141.516,78.842,142.27,82.607,145.92,82.607z"/>
	<path fill="#2B3137" d="M158.752,84.402h-2.551v-15.15h2.404v2.521h0.059c1.014-1.768,2.348-2.955,4.258-2.955
		c0.318,0,0.465,0.029,0.668,0.086v2.639h-0.957c-2.375,0-3.881,1.854-3.881,4.055V84.402L158.752,84.402z"/>
	<path fill="#2B3137" d="M178.131,84.402h-3.273l-4.721-7.646l-2.115,1.912v5.734h-2.463V63.604h2.463v12.052l6.519-6.403h3.244
		l-5.793,5.648L178.131,84.402z"/>
	<path fill="#2B3137" d="M188.588,73.568c-0.027-0.955-0.375-2.549-3.592-2.549c-0.781,0-3.012,0.261-3.012,2.144
		c0,1.246,0.781,1.535,2.752,2.028l2.549,0.638c3.158,0.782,4.258,1.94,4.258,3.997c0,3.129-2.576,5.013-5.996,5.013
		c-5.996,0-6.432-3.478-6.518-5.303h2.463c0.086,1.188,0.434,3.101,4.025,3.101c1.825,0,3.477-0.725,3.477-2.404
		c0-1.217-0.84-1.623-3.014-2.172l-2.953-0.725c-2.115-0.521-3.506-1.595-3.506-3.68c0-3.332,2.752-4.838,5.735-4.838
		c5.418,0,5.793,3.996,5.793,4.75H188.588z"/>
</g>
<text transform="matrix(1 0 0 1 -2.9995 -21.4883)" fill="#2B3137" font-family="'Helvetica'" font-size="31.8021">M</text>
<text transform="matrix(1 0 0 1 24.7637 -21.4883)" fill="#2B3137" font-family="'Helvetica'" font-size="31.8021">y Wo</text>
<text transform="matrix(1 0 0 1 97.207 -21.4883)" fill="#2B3137" font-family="'Helvetica'" font-size="31.8021">r</text>
<text transform="matrix(1 0 0 1 109.0693 -21.4883)" fill="#2B3137" font-family="'Helvetica'" font-size="31.8021">k</text>
<text transform="matrix(1 0 0 1 125.6064 -21.4883)" fill="#2B3137" font-family="'Helvetica'" font-size="31.8021">s</text>
<rect x="-29.5" y="1.928" fill="none" width="150.001" height="40.5"/>
<text transform="matrix(1 0 0 1 -29.5005 28.3281)" font-family="'KozGoPro-Medium-83pv-RKSJ-H'" font-size="30">Real Estate</text>
</svg>
